<ttFont>
<head>
    <!-- Most of this table will be recalculated by the compiler -->
    <tableVersion value="1.0"/>
    <fontRevision value="0.303"/>
    <checkSumAdjustment value="0x5eae1277"/>
    <magicNumber value="0x5f0f3cf5"/>
    <flags value="00000000 00000011"/>
    <unitsPerEm value="1000"/>
    <created value="Fri Mar 13 21:44:13 2009"/>
    <modified value="Thu Jan  6 10:43:08 2022"/>
    <xMin value="-346"/>
    <yMin value="-256"/>
    <xMax value="1309"/>
    <yMax value="1099"/>
    <macStyle value="00000000 00000000"/>
    <lowestRecPPEM value="6"/>
    <fontDirectionHint value="2"/>
    <indexToLocFormat value="0"/>
    <glyphDataFormat value="0"/>
  </head>
              <CharString index="0">
                2 -94 callsubr
              </CharString>
              <CharString index="1">
                1 blend
                -20 hstem
              </CharString>
              <CharString index="2">
                83 24 -21 1 blend
                hmoveto
              </CharString>
              <CharString index="3">
                -21 482 -98 callsubr
              </CharString>
              <CharString index="4">
                2 blend
                rmoveto
                26 31 6 10 19 -9</CharString>
              <CharString index="5">
                -206 8 -5 1 blend
                -21</CharString>
              <CharString index="6">
                -13 8 -2 1 -4 2 -5 14 5 blend
                hvcurveto
                -18 56 13 -16 -42 58 2 blend
                rlineto
                -5 -12 -11 -3 -12 0 2 1 2 -4 0 0 2 -1 6 5 blend
                hhcurveto
                -34 -18 23 37 -5 8 -5 4 6 -7 7 -6 4 blend
                hvcurveto
              </CharString>
              <CharString index="7">
                -105 callsubr
                -92 callsubr
              </CharString>
              <CharString index="8">
                8 -5 -93 callsubr
              </CharString>
              <CharString index="9">
                -2 8 1 blend
                -20</CharString>
              <CharString index="10">
                -69 43 -45 66 17 -30 -14 16 12 -11 -18 37 4 blend
                vhcurveto
              </CharString>
              <CharString index="11">
                621 -80 -631 31 -50 60 -90 -25 39 3 blend
                vlineto
              </CharString>
              <CharString index="12">
                192 -6 -8 32 4 -2 -103 callsubr
                11 -101 callsubr
                -96 callsubr
                -97 callsubr
              </CharString>
              <CharString index="13">
                blend
                rmoveto
                -85 callsubr
              </CharString>
              <CharString index="14">
                2 blend
                rmoveto
                91 40 53 76 88 -27 33 -12 1 -10 29 -14 27 -23 26 5 blend
                vvcurveto
                505 -80 -517 39 -41 59 -93 -27 53 3 blend
                vlineto
                -56 -36 -57 -54 -31 -2 -9 -1 5 1 -4 -2 2 3 -7 5 blend
                vhcurveto
              </CharString>
              <CharString index="15">
                80 482 -80 -59 93 -2 8 59 -93 3 blend
                hlineto
              </CharString>
              <CharString index="16">
                739 -80 60 -90 1 blend
              </CharString>
              <CharString index="17">
                21 -83 callsubr
                -98 80 31 -17 -72 84 65 -88 -59 93 4 blend
                hintmask 11101000
                -100 callsubr
                hintmask 11110000
                41 113 -29 46 34 -46 -107 callsubr
              </CharString>
              <CharString index="18">
                -102 callsubr
                709 -10 13 -79 callsubr
                hstemhm
                66 114 -97 80 30 -16 -72 84 66 -89 -59 93 4 blend
                hintmask 11101000
                19 -227 2 10 -99 callsubr
                hintmask 11110000
                130 774 -27 40 59 -79 -107 callsubr
              </CharString>
              <CharString index="19">
                -80 callsubr
                83 80 24 -21 -60 90 2 blend
                vstem
                -95 callsubr
              </CharString>
              <CharString index="20">
                21 -104 callsubr
                277 2 -8 -106 callsubr
                83 80 24 -21 -60 90 2 -86 callsubr
              </CharString>
              <CharString index="21">
                blend
                vstem
                388 27 -17 1 blend
                hmoveto
                106 -77 114 1 blend
                hlineto
                -251 286 -6 -49 235 245 -45 64 -19 9 4 -2 31 -8 41 -56 -14 7 6 blend
                rlineto
                -95 68 -104 1 blend
                hlineto
                -216 -225 -50 63 2 -8 2 blend
                rlineto
                -78 56 -83 1 blend
                -257 rmoveto
                -78 callsubr
              </CharString>
              <CharString index="22">
                -84 callsubr
                -24 24 12 -19 -12 19 24 -23 24 -23 12 -19 12 -19 24 -24 24 -23 -12 19 12 -19 -24 23 16 blend
                hvcurveto
              </CharString>
              <CharString index="23">
                36 21 21 36 36 -21 21 -36 -36 -21 -21 -36 -36 21 -21 36 -24 23 -12 19 -12 19 -24 23</CharString>
              <CharString index="24">
                -82 callsubr
                hstemhm
                67 114</CharString>
              <CharString index="25">
                -21 482 -81 callsubr
              </CharString>
              <CharString index="26">
                -2 8 -79 callsubr
              </CharString>
              <CharString index="27">
                -6 64 681 4 -2 -48 65 44 -63 3 blend
                -20 hstem
              </CharString>
              <CharString index="28">
                1 -77 callsubr
              </CharString>
              <CharString index="29">
                80 -60 90 1 blend
                -91 callsubr
                hlineto
              </CharString>
              <CharString index="30">
                blend
                -20 133 114 34 -46 -72 85 2 blend
              </CharString>
        <CharString name=".notdef">
        </CharString>
        <CharString name="glyph00002">
          -90 callsubr
        </CharString>
        <CharString name="i">
          -90 callsubr
        </CharString>
        <CharString name="j">
          -89 callsubr
        </CharString>
        <CharString name="k">
          -87 callsubr
        </CharString>
        <CharString name="l">
          -88 callsubr
        </CharString>
</ttFont>
